<?xml version="1.0" standalone="no"?>
<!DOCTYPE svg PUBLIC "-//W3C//DTD SVG 20010904//EN"
 "http://www.w3.org/TR/2001/REC-SVG-20010904/DTD/svg10.dtd">
<svg version="1.0" xmlns="http://www.w3.org/2000/svg"
 width="400.000000pt" height="400.000000pt" viewBox="0 0 400.000000 400.000000"
 preserveAspectRatio="xMidYMid meet">
<metadata>
Created by potrace 1.14, written by Peter Selinger 2001-2017
</metadata>
<g transform="translate(0.000000,400.000000) scale(0.100000,-0.100000)"
fill="#000000" stroke="none">
<path d="M0 2000 l0 -2000 589 0 c525 0 590 2 595 16 3 8 10 13 15 9 5 -3 21
6 35 20 14 14 30 25 36 25 6 0 -2 -12 -19 -26 -17 -14 -31 -30 -31 -35 0 -5
32 -9 70 -9 39 0 70 4 70 9 0 5 -17 23 -37 40 -26 21 -30 28 -15 24 11 -3 31
-20 44 -39 22 -32 26 -34 83 -33 45 0 55 2 38 9 -20 8 -120 74 -133 87 -3 3
37 -16 89 -43 73 -37 108 -49 154 -52 l60 -5 -21 31 c-33 45 -26 52 9 9 48
-58 64 -51 78 37 l12 73 -47 97 c-39 82 -49 95 -61 84 -8 -7 -25 -17 -37 -23
-11 -6 -24 -24 -27 -40 l-7 -30 -1 29 c-1 24 -3 27 -16 16 -10 -8 -15 -9 -15
-2 0 6 8 16 18 21 28 17 6 12 -33 -6 -37 -18 -49 -39 -15 -28 11 3 20 4 20 1
0 -8 -61 -35 -95 -42 -23 -4 -41 -17 -57 -39 -25 -38 -40 -44 -86 -37 -32 4
-41 15 -22 27 16 10 11 28 -6 21 -14 -5 -84 17 -84 28 0 2 15 0 32 -5 18 -5
48 -9 65 -9 32 0 41 -16 18 -32 -6 -4 -2 -8 9 -8 12 0 16 5 13 15 -4 8 -1 17
5 21 7 4 6 9 -2 14 -8 5 -1 11 19 18 17 6 31 17 31 24 0 8 5 6 11 -4 12 -21
39 -24 39 -4 0 20 24 38 37 25 6 -6 18 -3 36 11 15 12 27 18 27 14 0 -5 7 1
15 12 8 12 28 27 45 34 16 7 31 16 32 21 4 27 1 33 -22 34 -24 2 -52 -17 -140
-93 -70 -60 -54 -33 26 46 44 42 92 83 107 89 31 14 34 8 10 -19 -9 -11 -11
-18 -5 -18 7 0 12 4 12 9 0 11 39 6 49 -5 3 -4 -2 -4 -11 -1 -10 4 -18 2 -18
-3 0 -13 16 -13 39 0 23 12 45 64 38 90 -4 17 4 25 43 45 56 28 68 42 45 51
-14 6 -14 9 -2 23 30 34 65 118 60 145 -4 20 -2 25 9 21 10 -4 17 2 22 17 10
37 7 48 -10 41 -13 -5 -14 1 -10 37 2 23 9 47 14 52 6 6 4 26 -4 55 -8 26 -14
56 -13 67 1 12 5 3 10 -19 16 -69 20 -73 34 -35 18 48 18 81 -1 108 -20 28
-10 60 21 68 13 3 26 13 29 22 13 50 28 124 25 126 -2 2 -26 -6 -54 -19 -98
-44 -210 -93 -220 -97 -5 -1 -36 -21 -68 -42 -50 -34 -67 -40 -135 -46 -84 -7
-99 -13 -121 -43 -8 -11 -21 -17 -32 -14 -11 3 -22 1 -25 -5 -4 -7 -9 -7 -13
0 -4 6 -19 13 -35 16 -58 10 -83 57 -92 167 -5 62 -3 74 17 104 l23 33 64 -61
c68 -66 95 -110 106 -170 6 -33 9 -36 26 -27 10 5 44 10 74 10 82 0 163 44
151 81 -5 14 2 19 29 24 46 9 64 29 39 45 -16 10 -16 11 0 6 9 -3 17 -2 17 2
0 4 14 9 31 10 40 3 82 36 90 70 5 20 6 17 4 -10 -2 -26 1 -38 10 -38 7 0 16
6 19 13 3 6 3 1 -1 -13 -5 -21 -4 -23 9 -13 8 7 18 10 21 7 3 -4 22 4 43 16
34 22 36 25 31 63 -3 25 -2 35 3 27 6 -9 10 -2 15 26 10 68 14 88 22 114 l7
25 -25 -28 c-13 -15 -33 -38 -44 -52 -42 -52 -33 -22 11 35 37 49 43 63 35 79
-15 27 -14 30 8 24 13 -3 21 1 25 14 11 37 21 99 21 140 0 23 2 37 6 32 10
-18 18 74 8 93 -7 14 -5 26 9 46 18 25 42 92 42 118 0 7 -19 2 -47 -12 -27
-13 -91 -44 -144 -68 -53 -24 -126 -65 -163 -90 -57 -39 -75 -46 -116 -46 -56
0 -92 -12 -121 -39 -23 -21 -78 -21 -131 0 -59 24 -97 213 -54 270 l20 25 45
-43 c26 -23 49 -43 52 -43 3 0 16 14 29 32 26 35 29 71 12 133 -14 50 -3 90
46 160 63 91 101 132 136 149 52 24 66 19 16 -6 -24 -13 -51 -34 -59 -48 -15
-23 -14 -24 1 -12 9 7 19 9 22 4 3 -6 23 -6 48 -1 24 4 47 8 52 9 5 0 6 3 3 6
-3 4 -2 15 4 25 8 15 6 19 -8 20 -11 0 -13 3 -5 6 7 3 27 0 45 -7 17 -6 67
-15 110 -20 42 -5 85 -14 95 -20 13 -9 9 -10 -21 -6 -28 4 -37 2 -34 -7 3 -7
-1 -26 -8 -42 l-13 -30 5 36 c4 32 2 37 -18 42 -35 10 -64 8 -96 -4 -22 -8
-24 -12 -13 -19 12 -8 11 -10 -6 -10 -26 0 -86 -43 -150 -107 -76 -76 -103
-114 -109 -152 -8 -47 -34 -99 -64 -127 -23 -21 -25 -21 -43 -5 -10 10 -30 24
-43 31 -37 20 -60 -5 -51 -54 4 -20 11 -36 16 -36 5 0 7 -13 4 -29 -5 -23 1
-36 31 -70 31 -34 43 -41 66 -37 15 2 32 7 37 10 11 7 22 56 13 56 -4 0 -13
15 -19 34 -9 25 -25 40 -55 55 -33 17 -37 21 -19 21 13 0 37 -13 53 -29 31
-32 40 -21 12 13 -17 20 -17 20 0 6 23 -17 57 -83 57 -109 0 -28 6 -29 92 -20
69 7 83 11 120 43 23 20 45 36 50 36 4 0 8 4 8 10 0 5 -8 7 -17 4 -15 -5 -15
-3 1 10 11 9 24 16 29 16 4 0 6 4 2 10 -3 5 -13 6 -23 3 -15 -6 -15 -5 -3 11
8 9 20 15 28 12 7 -3 13 1 13 9 0 8 6 12 14 9 9 -3 27 7 43 23 26 26 70 43 57
22 -3 -5 -12 -9 -20 -9 -8 0 -14 -4 -14 -10 0 -5 4 -10 8 -10 12 0 59 54 66
76 3 11 3 1 1 -22 l-5 -40 37 -1 c21 -1 50 5 65 13 24 12 28 21 28 57 0 24 -5
48 -12 55 -8 8 -8 12 -1 12 6 0 14 -8 19 -17 6 -14 9 -8 13 22 4 22 2 43 -4
47 -6 5 -5 8 3 8 6 0 12 8 12 18 0 12 -12 3 -40 -28 -21 -25 -39 -40 -40 -33
0 6 4 13 8 15 5 2 23 24 40 50 25 37 31 54 26 74 -5 19 -4 25 5 20 6 -4 14 2
20 16 11 31 43 232 45 283 1 22 4 45 8 50 6 10 38 126 38 139 0 3 -6 5 -12 4
-7 -2 -12 5 -12 15 2 20 0 21 -29 5 -27 -14 -234 -68 -262 -68 -12 0 -25 -4
-31 -10 -19 -19 -128 -70 -148 -70 -12 1 -1 8 24 17 47 16 94 45 120 73 8 10
40 25 70 35 55 18 86 35 61 35 -7 0 -9 4 -6 10 3 5 20 9 37 7 27 -2 32 3 44
33 l14 35 -6 -49 c-5 -44 -4 -48 9 -37 11 9 21 9 35 2 23 -12 87 22 76 41 -5
7 -2 9 9 5 18 -7 22 3 32 76 4 28 2 47 -4 47 -5 0 -12 -8 -14 -17 -4 -17 -5
-17 -6 0 0 10 6 20 14 23 8 4 15 16 15 28 -1 20 -1 20 -21 -4 -11 -14 -26 -32
-34 -41 -10 -13 -10 -20 -2 -29 10 -10 7 -10 -12 0 -13 7 -19 15 -14 19 12 7
83 99 83 106 0 3 -15 -2 -32 -10 l-33 -16 29 25 30 25 -18 39 c-10 22 -33 55
-52 73 -18 18 -31 36 -29 40 3 4 1 18 -4 32 -8 21 -3 32 41 80 36 40 60 58 84
63 33 6 34 8 34 51 0 68 59 157 90 138 13 -8 13 -96 -1 -151 -10 -40 -10 -46
7 -59 18 -14 18 -14 0 -15 -12 0 -16 -5 -12 -16 3 -9 6 -20 6 -26 0 -6 7 -7
16 -4 22 9 44 -51 44 -121 0 -94 -44 -144 -115 -131 -28 6 -31 -5 -10 -42 16
-28 20 -86 6 -95 -6 -3 -8 10 -5 32 4 33 3 35 -6 15 -5 -13 -8 -43 -5 -65 12
-85 7 -144 -15 -187 -23 -46 -21 -60 7 -40 10 7 4 -1 -13 -16 l-31 -29 37 -68
c41 -76 74 -117 92 -117 9 0 8 -3 -2 -10 -12 -7 -12 -12 -2 -22 6 -6 12 -17
12 -23 0 -5 -9 1 -19 14 l-19 25 -16 -38 c-17 -42 -21 -92 -7 -100 4 -3 12
-20 16 -38 4 -18 9 -28 11 -22 3 7 17 -1 35 -18 16 -16 27 -34 23 -39 -3 -5
-2 -8 3 -7 8 3 53 -37 53 -48 0 -3 -7 -3 -16 0 -12 5 -14 1 -8 -16 4 -12 13
-28 20 -36 8 -7 14 -18 14 -23 0 -6 -22 16 -48 48 -27 32 -75 81 -107 108 -31
28 -75 67 -95 87 -37 36 -38 36 -42 13 -5 -25 -3 -64 7 -130 6 -34 2 -49 -24
-90 -22 -36 -34 -74 -44 -137 -7 -49 -11 -88 -9 -88 3 0 15 8 26 17 17 14 16
12 -2 -9 l-24 -26 34 -54 c48 -75 50 -78 44 -78 -3 0 -22 25 -42 55 -21 30
-39 54 -40 52 -3 -3 3 -25 24 -87 3 -8 6 -17 6 -20 1 -3 5 -11 9 -17 5 -8 4
-13 -3 -13 -6 0 -13 7 -16 15 -4 8 -13 15 -21 15 -8 0 -11 5 -8 10 3 6 2 10
-4 10 -13 0 -36 -119 -32 -168 1 -7 6 -10 13 -6 6 4 8 3 5 -3 -4 -6 2 -18 13
-28 21 -19 28 -7 8 13 -9 9 -4 9 22 2 18 -5 37 -15 42 -22 5 -9 8 -5 8 12 0
14 7 36 15 50 17 30 19 22 5 -16 -11 -29 -4 -84 10 -84 12 0 59 -47 53 -53 -2
-3 8 -8 22 -11 16 -4 23 -11 19 -18 -4 -6 6 -23 22 -37 16 -14 25 -23 20 -18
-18 13 -27 7 -18 -10 21 -42 -2 -39 -46 5 -26 26 -72 67 -102 92 -30 25 -71
62 -92 82 -33 34 -37 35 -36 15 1 -12 9 -31 17 -42 15 -18 15 -19 -1 -7 -17
13 -35 1 -24 -16 3 -5 -1 -30 -9 -57 -8 -26 -15 -53 -15 -59 1 -17 23 25 31
59 l7 30 1 -31 c1 -18 -9 -46 -23 -66 -27 -41 -44 -88 -49 -138 -2 -20 -6 -41
-10 -47 -6 -9 -17 -86 -18 -118 -1 -60 70 -231 116 -281 37 -40 30 -43 -9 -5
l-35 34 -5 -34 c-6 -44 -5 -69 5 -69 4 0 11 -10 15 -22 3 -12 13 -28 20 -36 8
-7 11 -18 8 -24 -4 -6 -3 -8 3 -5 14 9 54 -37 69 -79 l12 -36 -24 23 c-29 28
-30 21 -3 -28 l20 -38 -23 29 c-51 65 -106 121 -161 163 l-57 44 -20 -43 c-11
-24 -20 -51 -20 -62 0 -15 6 -13 35 13 20 17 41 31 48 31 7 0 1 -9 -13 -19
-78 -59 -82 -65 -106 -172 -30 -135 -30 -134 7 -136 17 -1 64 -14 104 -28 53
-18 94 -25 148 -25 59 0 74 -3 74 -15 0 -18 -33 -20 -73 -5 -34 13 -44 4 -16
-16 12 -8 35 -34 51 -58 34 -49 87 -174 77 -183 -3 -4 -6 -1 -6 7 0 23 -71
158 -86 164 -9 3 -12 11 -8 17 5 8 3 9 -6 4 -7 -4 -15 -3 -19 2 -3 5 -23 22
-45 38 -37 28 -39 29 -53 10 -14 -19 -15 -19 -11 3 2 20 -4 27 -44 42 -75 28
-98 32 -92 16 3 -8 1 -17 -4 -20 -5 -3 -9 0 -8 7 0 6 -3 12 -9 12 -5 0 -11 -9
-11 -20 -1 -11 -6 -31 -11 -45 -6 -14 -16 -66 -23 -117 l-13 -92 29 -38 c59
-78 39 -73 290 -73 l226 0 -6 77 c-3 43 -7 89 -7 102 -1 18 -3 21 -10 10 -5
-8 -9 -9 -9 -4 0 6 -9 -5 -20 -22 -11 -18 -17 -41 -14 -50 3 -10 -2 -7 -10 7
-22 36 -20 77 5 90 11 7 27 9 35 6 17 -6 17 -5 4 30 -9 23 -9 25 4 15 8 -7 21
-29 27 -49 16 -45 15 -42 19 -122 l3 -65 7 50 c5 28 9 75 10 105 l3 55 7 -45
c4 -25 4 -72 -1 -105 -5 -33 -9 -66 -9 -72 0 -10 171 -13 820 -13 l820 0 0
2000 0 2000 -2000 0 -2000 0 0 -2000z m1856 1498 c4 -7 4 -10 -1 -6 -4 4 -14
3 -22 -3 -8 -8 -13 -8 -13 -1 0 6 6 13 13 15 6 3 13 6 14 6 1 1 5 -5 9 -11z
m8 -92 c-53 -25 -80 -48 -44 -39 24 6 26 -10 3 -33 -9 -9 -18 -25 -18 -35 -2
-18 0 -18 19 -4 31 23 119 65 137 65 8 0 20 5 27 12 8 8 13 5 21 -13 9 -26 41
-58 41 -42 0 5 -6 15 -12 23 -13 14 0 5 49 -35 30 -25 21 -79 -22 -125 -18
-19 -35 -42 -38 -50 -4 -10 -6 -9 -6 6 -1 11 15 35 34 54 39 37 43 56 19 86
-14 17 -15 17 -10 1 3 -10 -4 -34 -15 -55 -19 -33 -22 -22 -5 18 4 10 -4 21
-24 32 -27 15 -35 16 -82 3 -102 -27 -139 -45 -198 -97 -39 -34 -61 -62 -66
-82 -7 -34 -49 -96 -65 -96 -6 0 1 14 15 31 14 17 26 39 26 50 0 11 7 31 16
45 9 13 14 27 11 31 -4 3 -11 -5 -17 -19 -6 -13 -20 -24 -31 -25 -22 -2 -24 7
-6 27 10 12 9 12 -5 1 -28 -21 -22 -5 24 62 81 120 201 227 252 227 13 0 0
-10 -30 -24z m276 -126 c0 -5 -4 -10 -10 -10 -5 0 -10 5 -10 10 0 6 5 10 10
10 6 0 10 -4 10 -10z m-536 -166 c8 -20 -2 -36 -17 -31 -7 2 -24 -2 -39 -9
-15 -8 -29 -10 -32 -5 -6 10 50 35 74 33 10 -1 11 0 3 4 -15 6 -17 24 -4 24 5
0 12 -7 15 -16z m480 -47 c12 -9 16 -22 13 -38 l-4 -24 -2 26 c0 16 -9 30 -23
37 -13 6 -18 11 -12 11 5 1 18 -5 28 -12z m-614 -22 c-10 -12 -4 -23 33 -65
47 -52 102 -154 92 -169 -3 -5 -2 -16 1 -25 4 -11 18 -14 52 -12 26 2 36 2 22
-1 -36 -6 -80 -24 -80 -33 0 -14 -32 -21 -46 -9 -7 6 -18 8 -24 4 -5 -3 -10
-1 -10 5 0 6 -11 15 -25 20 -35 13 -55 65 -62 162 -5 77 -5 80 23 109 29 30
46 40 24 14z m48 -23 c6 -18 -15 -14 -22 4 -4 10 -1 14 6 12 6 -2 14 -10 16
-16z m995 -241 c31 -7 59 -16 62 -21 3 -5 12 -7 20 -4 20 8 57 -15 51 -31 -3
-8 0 -17 6 -21 7 -4 8 -3 4 4 -11 18 10 14 25 -5 12 -15 12 -16 -1 -9 -10 6
-9 3 3 -10 15 -16 19 -17 27 -4 8 12 10 12 10 -5 0 -15 3 -17 9 -7 12 20 21
19 33 -2 7 -12 13 -15 17 -7 13 21 76 -179 77 -244 1 -33 0 -45 -3 -27 -4 33
-17 42 -27 20 -3 -7 -4 8 -1 33 3 25 1 56 -5 70 -10 23 -10 23 -7 -6 2 -16 2
-24 0 -17 -3 6 -8 12 -13 12 -5 0 -12 14 -15 31 -4 19 -10 27 -14 20 -5 -7
-12 -3 -21 14 -7 14 -17 25 -22 25 -5 0 -6 5 -3 10 3 6 -3 10 -14 10 -13 0
-26 12 -37 33 -20 39 -44 60 -108 93 -44 23 -85 26 -72 6 3 -5 1 -22 -4 -38
-6 -21 -9 -24 -9 -9 -2 19 -2 19 -16 1 -12 -16 -12 -23 1 -54 8 -19 12 -37 9
-40 -4 -5 -21 32 -26 59 -4 19 10 59 21 59 4 0 10 11 12 25 4 19 1 25 -13 25
-27 0 -49 11 -43 22 3 5 11 7 18 5 6 -3 37 -10 69 -16z m247 -298 c18 -54 21
-77 15 -108 l-9 -40 -6 55 c-4 30 -16 82 -28 115 -12 32 -22 64 -22 70 1 22
28 -28 50 -92z m-880 -95 c0 -12 -6 -9 -26 13 -19 22 -19 22 4 8 12 -8 22 -17
22 -21z m25 -75 c-3 -13 -10 -23 -15 -23 -6 0 -10 -8 -11 -17 0 -12 -2 -13 -6
-5 -3 7 1 19 8 28 7 8 12 32 11 52 0 34 0 35 9 12 6 -13 7 -35 4 -47z m205 47
c0 -5 -5 -10 -11 -10 -5 0 -7 5 -4 10 3 6 8 10 11 10 2 0 4 -4 4 -10z m-30
-14 c0 -2 -8 -10 -17 -17 -16 -13 -17 -12 -4 4 13 16 21 21 21 13z m810 -50
c0 -6 -7 -1 -15 10 -8 10 -14 26 -14 34 0 16 28 -28 29 -44z m-930 -50 c0 -3
-4 -8 -10 -11 -5 -3 -10 -1 -10 4 0 6 5 11 10 11 6 0 10 -2 10 -4z m-508 -38
c-16 -16 -15 -31 1 -22 7 4 9 3 4 -2 -5 -5 -13 -10 -18 -10 -5 -1 -14 -2 -20
-3 -5 0 -7 -5 -4 -11 3 -5 -1 -10 -10 -10 -12 0 -8 10 17 39 18 22 35 38 37
35 3 -2 -1 -10 -7 -16z m1498 -32 c0 -25 -82 -146 -121 -179 -18 -15 -45 -27
-59 -27 -14 0 -32 -6 -39 -12 -11 -11 -12 -10 -6 0 5 9 1 12 -11 10 -12 -2
-23 7 -32 27 -8 17 -26 42 -40 58 -14 15 -22 27 -18 27 4 0 18 -12 31 -26 l24
-26 51 51 c29 29 81 66 123 87 39 20 74 41 76 46 5 14 21 -13 21 -36z m-269
-28 c11 -21 11 -22 -4 -9 -10 7 -17 17 -17 22 0 15 9 10 21 -13z m-746 -8 c3
-5 1 -10 -4 -10 -6 0 -11 5 -11 10 0 6 2 10 4 10 3 0 8 -4 11 -10z m655 -45
c14 -8 21 -14 15 -14 -5 0 -21 6 -35 14 -14 8 -20 14 -15 14 6 0 21 -6 35 -14z
m-218 -85 c29 -11 68 -21 85 -22 26 -2 36 -9 48 -35 9 -18 18 -33 21 -33 3 0
2 6 -1 13 -4 6 3 1 14 -12 14 -15 28 -22 41 -18 14 3 26 -3 40 -20 l20 -26 1
24 c0 15 12 -5 30 -51 17 -41 35 -86 41 -100 6 -14 12 -50 15 -80 2 -30 15
-77 28 -104 14 -29 17 -42 8 -33 -9 8 -23 38 -33 67 -12 36 -19 46 -24 35 -3
-9 -3 -22 1 -28 4 -7 -1 -6 -10 2 -20 16 -22 42 -5 59 7 7 8 12 2 12 -5 0 -3
4 5 9 12 8 10 17 -10 58 -14 28 -31 48 -40 48 -16 0 -149 129 -149 144 0 4
-18 17 -40 30 -48 27 -103 26 -108 -2 -3 -15 0 -18 17 -12 16 5 14 -1 -12 -28
-35 -37 -48 -41 -24 -6 9 11 13 27 10 34 -2 8 0 23 7 34 9 17 8 21 -5 22 -16
2 -32 5 -40 9 -5 2 -15 5 -31 9 -3 0 -2 6 1 11 9 15 38 12 97 -10z m-802 -35
c-7 -9 -15 -13 -19 -10 -3 3 1 10 9 15 21 14 24 12 10 -5z m170 -5 c0 -5 -5
-10 -11 -10 -5 0 -7 5 -4 10 3 6 8 10 11 10 2 0 4 -4 4 -10z m-310 -86 c0 -2
-7 -4 -15 -4 -8 0 -15 4 -15 10 0 5 7 7 15 4 8 -4 15 -8 15 -10z m910 -57 c0
-5 -4 -5 -10 -2 -5 3 -10 14 -10 23 0 15 2 15 10 2 5 -8 10 -19 10 -23z m-223
-19 c-3 -8 -6 -5 -6 6 -1 11 2 17 5 13 3 -3 4 -12 1 -19z m153 -29 c0 -5 -7
-6 -15 -3 -11 4 -15 -1 -16 -17 -1 -19 -2 -20 -6 -5 -3 10 0 23 6 29 8 8 6 17
-7 31 -12 15 -9 14 11 -3 15 -14 27 -28 27 -32z m-618 -20 c32 -10 77 -19 101
-19 24 0 52 -7 63 -15 18 -14 17 -14 -14 -9 -27 6 -31 4 -26 -9 3 -9 1 -24 -6
-34 -10 -16 -10 -16 -5 4 4 15 0 25 -14 32 -23 13 -88 13 -116 1 l-20 -9 20
-1 c15 -1 13 -4 -10 -12 -43 -15 -81 -43 -153 -113 -85 -80 -104 -109 -108
-162 -2 -25 -12 -55 -24 -70 -23 -30 -26 -23 -6 16 13 24 12 33 -3 79 -9 29
-21 49 -25 45 -5 -5 -6 1 -2 12 5 11 12 33 17 48 8 30 95 142 161 211 35 35
41 38 75 31 21 -4 64 -15 95 -26z m973 -54 c14 -39 25 -79 24 -90 0 -20 0 -20
-9 0 -5 11 -16 47 -26 80 -9 33 -21 64 -26 70 -4 5 -8 14 -8 19 0 23 21 -14
45 -79z m54 5 c0 -9 -6 -4 -14 10 -8 14 -14 32 -14 40 0 9 6 4 14 -10 8 -14
14 -32 14 -40z m-984 -20 c3 -5 1 -10 -4 -10 -6 0 -11 5 -11 10 0 6 2 10 4 10
3 0 8 -4 11 -10z m65 -107 c0 -12 -7 -28 -15 -37 -8 -8 -15 -20 -15 -27 0 -7
-3 -9 -6 -6 -4 3 1 21 9 40 9 18 14 44 11 58 -5 19 -3 21 5 9 6 -8 11 -25 11
-37z m-270 -17 c0 -2 -7 -9 -15 -16 -13 -11 -14 -10 -9 4 5 14 24 23 24 12z
m1157 -33 c-3 -10 -5 -4 -5 12 0 17 2 24 5 18 2 -7 2 -21 0 -30z m-1356 -81
c-5 -9 -19 -26 -32 -37 -19 -16 -18 -13 5 18 30 39 43 49 27 19z m244 -2 c-3
-5 -11 -10 -16 -10 -6 0 -7 5 -4 10 3 6 11 10 16 10 6 0 7 -4 4 -10z m1296
-60 c-18 -46 -76 -132 -107 -159 -30 -26 -43 -31 -89 -31 -52 0 -54 1 -72 38
-14 28 -32 44 -78 67 -70 35 -98 54 -110 75 -4 8 3 5 16 -7 13 -12 47 -32 74
-44 28 -12 61 -31 74 -43 l23 -21 17 23 c33 47 84 88 159 128 l77 41 11 -26
c6 -14 8 -33 5 -41z m-1071 -70 c0 -5 -4 -10 -10 -10 -5 0 -10 5 -10 10 0 6 5
10 10 10 6 0 10 -4 10 -10z m-95 -60 c-3 -5 -10 -10 -16 -10 -5 0 -9 5 -9 10
0 6 7 10 16 10 8 0 12 -4 9 -10z m-235 -34 c0 -2 -7 -7 -16 -10 -8 -3 -12 -2
-9 4 6 10 25 14 25 6z m800 -32 c81 -5 149 -23 88 -24 -26 0 -25 -2 26 -50 57
-54 66 -59 66 -34 0 9 5 13 13 10 6 -3 20 -9 29 -12 10 -3 20 -15 23 -25 4
-11 9 -17 13 -15 4 2 7 -13 7 -35 0 -21 -4 -39 -9 -39 -4 0 -5 -17 -2 -37 l7
-38 -17 30 c-9 17 -25 46 -36 65 -10 19 -18 28 -18 20 0 -9 -7 -4 -18 11 -50
74 -164 158 -197 145 -8 -3 -15 -1 -15 4 0 5 -18 13 -40 16 -22 4 -43 11 -47
17 -4 6 2 8 18 3 13 -4 62 -9 109 -12z m-40 -109 l-7 -50 -2 60 c0 34 3 55 8
50 4 -6 5 -32 1 -60z m355 -99 c8 -43 15 -112 15 -154 0 -43 4 -93 10 -111 7
-25 7 -32 -1 -24 -6 6 -14 32 -16 57 -5 41 -8 46 -26 40 -19 -6 -19 -5 -3 17
20 30 21 94 0 150 -13 38 -12 120 2 106 2 -2 11 -39 19 -81z m-395 20 c0 -2
-7 -7 -16 -10 -8 -3 -12 -2 -9 4 6 10 25 14 25 6z m-50 -21 c0 -11 -31 -11
-39 -1 -9 10 -6 12 14 8 14 -2 25 -6 25 -7z m-614 -75 c52 -16 125 -33 164
-36 38 -4 70 -11 70 -17 0 -6 -19 -7 -50 -4 -50 6 -50 6 -35 -16 9 -15 11 -27
5 -37 -8 -12 -10 -11 -10 6 0 30 -45 58 -78 49 -46 -11 -114 -58 -124 -84 -5
-14 -23 -37 -40 -51 -31 -24 -31 -24 -26 -2 4 12 2 20 -2 17 -5 -3 -11 4 -15
15 -3 11 -11 20 -16 20 -6 0 -7 5 -4 10 3 6 24 10 47 10 32 0 39 3 34 16 -3 8
-2 12 4 9 5 -3 19 -1 30 5 18 10 19 14 8 27 -11 14 -10 15 8 9 11 -3 36 0 54
8 l33 14 -41 7 c-23 4 -42 11 -42 16 0 4 -21 15 -47 23 -27 8 -42 15 -34 15 8
1 56 -12 107 -29z m-156 -1 c-19 -12 -43 -29 -52 -39 -22 -23 -34 -70 -18 -70
6 0 8 5 5 10 -3 6 -1 10 4 10 6 0 11 -4 11 -10 0 -5 5 -10 11 -10 5 0 8 4 5 9
-3 5 2 12 12 15 9 3 28 13 42 21 14 8 36 15 50 15 23 0 23 -2 -9 -17 -35 -17
-121 -100 -121 -117 0 -5 -7 -18 -17 -28 -9 -10 -13 -21 -10 -25 4 -4 14 2 23
13 14 18 15 18 4 -3 -6 -13 -17 -23 -25 -23 -19 0 -37 -62 -29 -104 3 -20 10
-36 14 -36 4 0 11 -7 14 -16 3 -8 2 -12 -4 -9 -6 3 -10 -2 -10 -12 0 -11 -6
-28 -14 -39 -13 -17 -12 -22 7 -43 21 -22 21 -23 1 -11 -17 10 -26 9 -55 -5
l-34 -18 19 22 c14 15 16 25 9 32 -12 12 -58 2 -73 -16 -16 -19 -8 -61 10 -57
12 3 11 0 -2 -15 -10 -11 -14 -28 -11 -44 6 -33 58 -98 87 -109 19 -8 19 -9
-6 -9 -16 -1 -37 8 -47 18 -11 11 -22 17 -24 14 -3 -3 -13 10 -23 29 -34 65
-12 208 31 208 9 0 24 6 36 13 17 10 22 9 33 -5 17 -23 26 -13 26 29 l0 35
-37 -22 -38 -22 39 34 c37 33 38 34 27 73 -6 22 -11 57 -11 77 0 45 34 139 69
193 26 39 83 85 105 85 6 0 -5 -10 -24 -21z m199 -120 c15 -24 15 -24 -5 -7
-16 14 -23 15 -32 6 -9 -9 -12 -8 -12 3 0 37 25 36 49 -2z m18 -51 c-3 -8 -6
-5 -6 6 -1 11 2 17 5 13 3 -3 4 -12 1 -19z m-197 -28 c0 -5 -2 -10 -4 -10 -3
0 -8 5 -11 10 -3 6 -1 10 4 10 6 0 11 -4 11 -10z m662 -22 c-8 -8 -9 -4 -5 13
4 13 8 18 11 10 2 -7 -1 -18 -6 -23z m-697 -30 c-10 -13 -14 -16 -11 -8 3 8 9
24 13 35 4 11 8 14 11 7 2 -6 -4 -22 -13 -34z m222 10 c-3 -7 -5 -2 -5 12 0
14 2 19 5 13 2 -7 2 -19 0 -25z m479 -43 c-17 -52 -95 -166 -128 -189 -38 -27
-31 -9 11 30 43 38 104 137 117 187 3 15 9 26 11 23 3 -3 -2 -26 -11 -51z
m585 38 c13 -16 12 -17 -3 -4 -10 7 -18 15 -18 17 0 8 8 3 21 -13z m-911 -62
c0 -6 -5 -13 -12 -17 -6 -4 -8 -3 -4 4 3 5 0 13 -6 15 -8 3 -6 6 5 6 9 1 17
-3 17 -8z m37 3 c-3 -3 -12 -4 -19 -1 -8 3 -5 6 6 6 11 1 17 -2 13 -5z m904
-14 c30 0 -19 -116 -72 -169 -42 -43 -78 -60 -130 -62 -72 -3 -82 -1 -75 17 3
8 2 12 -4 9 -6 -3 -10 3 -10 14 0 11 -16 36 -35 56 -20 19 -32 35 -27 35 4 0
21 -13 36 -29 29 -30 51 -31 61 -3 3 10 24 30 46 46 l41 29 -37 -51 c-47 -66
-52 -90 -19 -98 50 -13 128 29 154 83 8 18 25 41 38 53 48 45 14 61 -64 31
-78 -30 -79 -26 -4 14 36 19 71 32 78 29 8 -2 18 -4 23 -4z m-440 -47 c13 -16
12 -17 -3 -4 -10 7 -18 15 -18 17 0 8 8 3 21 -13z m301 -125 c-13 -12 -72 -13
-72 0 0 4 18 7 40 7 21 0 36 -3 32 -7z m-1252 -68 l25 -20 -32 12 c-18 7 -33
16 -33 20 0 13 13 9 40 -12z m90 -74 c0 -26 -6 -18 -14 19 -5 22 -4 26 4 15 5
-8 10 -24 10 -34z m493 -30 c-3 -14 2 -39 11 -56 14 -29 14 -31 0 -26 -9 3
-18 6 -20 6 -2 0 -4 25 -4 56 0 30 4 53 9 50 4 -3 6 -17 4 -30z m400 -36 c-3
-11 -7 -20 -9 -20 -2 0 -4 9 -4 20 0 11 4 20 9 20 5 0 7 -9 4 -20z m60 -75
c-3 -9 -8 -14 -10 -11 -3 3 -2 9 2 15 9 16 15 13 8 -4z m-368 -5 c8 -13 -5
-13 -25 0 -13 8 -13 10 2 10 9 0 20 -4 23 -10z"/>
<path d="M1890 3312 c-55 -33 -31 -43 29 -13 22 12 48 21 58 21 15 0 16 2 3
10 -23 15 -41 11 -90 -18z"/>
<path d="M1770 3271 c0 -5 -8 -12 -17 -14 -15 -4 -15 -5 -2 -6 9 0 22 6 29 14
9 10 9 15 1 15 -6 0 -11 -4 -11 -9z"/>
<path d="M1693 3216 c-15 -13 -26 -26 -23 -29 3 -3 21 8 40 24 19 16 29 29 23
29 -7 0 -25 -11 -40 -24z"/>
<path d="M1444 2975 c-8 -19 3 -48 15 -41 5 3 11 14 14 25 6 23 -21 38 -29 16z"/>
<path d="M1490 2949 c0 -8 -9 -20 -20 -27 -26 -16 -25 -36 4 -99 25 -54 56
-74 81 -53 18 15 20 40 3 40 -10 0 -9 3 1 9 11 7 11 15 2 43 -13 39 -71 110
-71 87z"/>
<path d="M2607 2739 c7 -7 15 -10 18 -7 3 3 -2 9 -12 12 -14 6 -15 5 -6 -5z"/>
<path d="M2851 2151 c-69 -28 -131 -98 -131 -148 0 -22 62 -11 98 18 20 17 22
20 7 16 -14 -5 -11 -1 8 14 16 12 33 33 38 46 5 13 13 22 18 19 8 -5 41 34 41
49 0 10 -35 4 -79 -14z m-51 -131 c0 -13 -20 -13 -40 0 -12 8 -9 10 13 10 15
0 27 -4 27 -10z"/>
<path d="M2477 1959 c7 -7 15 -10 18 -7 3 3 -2 9 -12 12 -14 6 -15 5 -6 -5z"/>
<path d="M1499 1747 c-14 -12 -31 -30 -38 -39 -11 -15 -9 -16 24 -7 20 6 43 8
51 5 18 -7 76 13 69 24 -3 5 0 12 6 16 17 10 -11 24 -51 24 -22 0 -44 -8 -61
-23z"/>
<path d="M1520 1660 c-9 -6 -10 -10 -3 -10 6 0 15 5 18 10 8 12 4 12 -15 0z"/>
<path d="M1440 1595 c-7 -9 -15 -13 -18 -10 -3 3 -14 -7 -25 -22 -16 -24 -18
-25 -12 -5 4 13 2 22 -5 22 -6 0 -8 5 -4 13 5 7 1 6 -10 -3 -27 -22 -36 -54
-27 -102 l7 -43 16 30 c15 28 26 43 84 108 13 15 20 27 15 27 -5 0 -14 -7 -21
-15z"/>
<path d="M2735 1401 c-60 -24 -78 -41 -110 -97 -42 -75 -17 -107 53 -70 28 15
85 69 83 80 -4 21 0 36 8 31 13 -8 51 43 44 61 -7 18 -27 17 -78 -5z m15 -94
c0 -2 -12 -14 -27 -28 l-28 -24 24 28 c23 25 31 32 31 24z m-70 -57 c0 -5 -6
-10 -14 -10 -8 0 -18 5 -21 10 -3 6 3 10 14 10 12 0 21 -4 21 -10z"/>
<path d="M1216 728 c-40 -89 -29 -98 18 -15 21 36 23 47 12 47 -8 0 -22 -15
-30 -32z"/>
<path d="M2416 3364 c-30 -26 -31 -39 -2 -28 16 6 41 42 34 49 -2 2 -16 -8
-32 -21z"/>
<path d="M2250 2698 c0 -15 5 -30 10 -33 13 -8 13 25 0 45 -8 12 -10 9 -10
-12z"/>
<path d="M2285 2675 c4 -22 12 -46 18 -52 18 -23 -2 -13 -29 14 l-28 28 -7
-28 c-4 -15 -10 -56 -14 -90 -6 -58 -5 -64 23 -99 16 -21 32 -35 36 -31 3 3 0
13 -7 21 -10 13 -9 15 5 9 9 -3 19 -1 22 6 2 7 5 5 5 -5 1 -9 6 -20 11 -23 7
-4 9 2 5 17 -4 14 3 44 18 77 l24 54 -38 64 c-48 83 -52 86 -44 38z"/>
<path d="M1584 2341 c-18 -11 -39 -29 -47 -41 l-15 -22 -7 22 c-11 36 -25 4
-25 -60 l0 -55 18 27 c9 15 39 55 65 88 27 33 47 60 45 60 -2 0 -17 -9 -34
-19z"/>
<path d="M1520 2315 c0 -8 2 -15 4 -15 2 0 6 7 10 15 3 8 1 15 -4 15 -6 0 -10
-7 -10 -15z"/>
<path d="M2199 2325 c-4 -5 -9 -32 -13 -60 -6 -49 -6 -50 9 -22 15 26 18 105
4 82z"/>
<path d="M1810 2009 c0 -5 5 -7 10 -4 6 3 10 8 10 11 0 2 -4 4 -10 4 -5 0 -10
-5 -10 -11z"/>
<path d="M2122 1890 c0 -14 2 -19 5 -12 2 6 2 18 0 25 -3 6 -5 1 -5 -13z"/>
<path d="M1166 1314 c-10 -26 -7 -74 5 -74 6 0 8 -9 4 -20 -14 -44 53 -132
100 -132 36 0 47 14 48 59 0 84 -17 116 -85 159 -44 28 -64 30 -72 8z m133
-103 c-1 -13 -2 -13 -5 -1 -3 8 -18 24 -34 35 -17 11 -30 24 -30 28 0 4 16 -4
35 -19 19 -14 34 -34 34 -43z"/>
<path d="M1873 1144 c-3 -8 0 -21 7 -27 10 -10 12 -8 7 6 -4 9 -2 17 3 17 6 0
10 5 10 10 0 16 -20 12 -27 -6z"/>
<path d="M1971 1104 c0 -11 3 -14 6 -6 3 7 2 16 -1 19 -3 4 -6 -2 -5 -13z"/>
<path d="M1956 1014 c-11 -28 6 -115 25 -133 10 -9 22 -28 28 -41 10 -25 10
-25 10 5 1 17 8 41 16 53 15 20 14 25 -11 67 -31 53 -59 73 -68 49z"/>
<path d="M1812 695 c-7 -14 -12 -32 -12 -40 0 -8 -5 -15 -12 -15 -9 0 -9 -3 0
-12 16 -16 23 -6 32 44 10 51 7 57 -8 23z"/>
<path d="M1761 556 c-7 -9 -28 -21 -46 -27 -30 -11 -34 -17 -37 -58 -4 -45 1
-68 9 -44 4 10 8 9 20 -2 15 -16 49 -20 57 -7 2 4 10 35 17 70 14 66 5 98 -20
68z"/>
<path d="M1682 363 c-26 -13 -31 -20 -26 -37 12 -39 69 -131 71 -116 1 8 9 50
17 93 13 76 13 77 -8 77 -11 0 -36 -8 -54 -17z"/>
<path d="M1420 250 c-8 -5 -10 -10 -5 -10 6 0 17 5 25 10 8 5 11 10 5 10 -5 0
-17 -5 -25 -10z"/>
<path d="M1766 73 c-3 -4 -6 -20 -6 -37 0 -28 3 -31 35 -33 19 -1 35 1 35 5 0
13 -58 71 -64 65z"/>
</g>
</svg>
